<svg width="116" height="33" viewBox="0 0 116 33" fill="none" xmlns="http://www.w3.org/2000/svg">
<path d="M5.41373 21.514C5.01316 20.8416 5.28979 19.9702 6.00488 19.6519L12.3384 16.833C12.7212 16.6626 13.1625 16.6862 13.525 16.8964L17.144 18.9952C17.5046 19.2043 17.7437 19.5729 17.7877 19.9874L18.5267 26.9467C18.6091 27.7228 17.9972 28.3975 17.2168 28.391L14.2892 28.367C13.5013 28.3605 12.8984 27.6633 13.0057 26.8827L13.5911 22.6237C13.6392 22.2743 13.4707 21.9307 13.1651 21.7547C12.8591 21.5785 12.4767 21.6055 12.1986 21.8231L8.86447 24.4317C8.24462 24.9167 7.33985 24.7475 6.93709 24.0714L5.41373 21.514Z" fill="white"/>
<path fill-rule="evenodd" clip-rule="evenodd" d="M19.1675 18.8047L24.7643 22.9217C25.0812 23.1548 25.5307 23.0569 25.7221 22.7132L27.1725 20.1078C27.3635 19.7646 27.2107 19.3318 26.8467 19.1845L22.8812 17.5803C22.3069 17.348 21.931 16.7904 21.931 16.1709C21.931 15.5553 22.3022 15.0005 22.8712 14.7656L26.8506 13.1229C27.2128 12.9734 27.3628 12.5408 27.1708 12.1991L25.7256 9.62735C25.5334 9.2853 25.0852 9.18868 24.7691 9.42116L19.1675 13.5415C19.0001 13.6646 18.9013 13.8599 18.9013 14.0677V18.2786C18.9013 18.4863 19.0001 18.6817 19.1675 18.8047ZM18.7804 19.3309C18.4457 19.0847 18.2481 18.694 18.2481 18.2786V14.0677C18.2481 13.6522 18.4457 13.2615 18.7804 13.0153L24.3821 8.89497C25.0142 8.43002 25.9106 8.62327 26.2951 9.30735L27.7402 11.8791C28.1242 12.5624 27.8243 13.4276 27.0998 13.7267L23.1205 15.3694C22.7959 15.5034 22.5842 15.8198 22.5842 16.1709C22.5842 16.5242 22.7986 16.8422 23.1261 16.9748L27.0917 18.579C27.8197 18.8735 28.1252 19.7393 27.7432 20.4255L26.2928 23.0309C25.9101 23.7184 25.011 23.9141 24.3772 23.4479L18.7804 19.3309Z" fill="#2DEBFC"/>
<path d="M17.1441 13.303C17.5047 13.0939 17.7438 12.7253 17.7878 12.3108L18.5255 5.36357C18.6083 4.58323 17.9894 3.90645 17.2048 3.9194L14.2768 3.96776C13.4933 3.98069 12.8974 4.67562 13.0041 5.45189L13.591 9.72167C13.6392 10.072 13.4702 10.4165 13.1638 10.5928C12.8583 10.7686 12.477 10.7425 12.1984 10.5266L8.81845 7.9078C8.19711 7.42637 7.29439 7.59867 6.89404 8.2751L5.40812 10.7857C5.01021 11.4581 5.28742 12.327 6.00116 12.6447L12.3384 15.4652C12.7213 15.6356 13.1626 15.612 13.5251 15.4018L17.1441 13.303Z" fill="#2C85FC"/>
<path d="M48.0726 15.0615V23.5638H51.2361V12.7284H46.629V15.0615H48.0726Z" fill="white"/>
<path d="M47.9735 11.206C48.2635 11.5091 48.7051 11.6607 49.2982 11.6607C49.8917 11.6607 50.3264 11.5091 50.603 11.206C50.8933 10.8895 51.038 10.4941 51.038 10.0196C51.038 9.53186 50.8933 9.13638 50.603 8.83329C50.3264 8.51694 49.8917 8.3587 49.2982 8.3587C48.7051 8.3587 48.2635 8.51694 47.9735 8.83329C47.6969 9.13638 47.5584 9.53186 47.5584 10.0196C47.5584 10.4941 47.6969 10.8895 47.9735 11.206Z" fill="white"/>
<path d="M72.6699 23.5132C72.96 23.8163 73.4015 23.9679 73.9946 23.9679C74.5881 23.9679 75.0228 23.8163 75.2994 23.5132C75.5897 23.1967 75.7344 22.8013 75.7344 22.3268C75.7344 21.8391 75.5897 21.4436 75.2994 21.1405C75.0228 20.8241 74.5881 20.6659 73.9946 20.6659C73.4015 20.6659 72.96 20.8241 72.6699 21.1405C72.3933 21.4436 72.2548 21.8391 72.2548 22.3268C72.2548 22.8013 72.3933 23.1967 72.6699 23.5132Z" fill="white"/>
<path d="M37.0596 23.3263C37.9558 23.7349 39.0564 23.9394 40.3612 23.9394C41.5872 23.9394 42.6415 23.7483 43.525 23.3659C44.4081 22.9837 45.0868 22.4497 45.5613 21.7645C46.0493 21.0656 46.2929 20.255 46.2929 19.3323C46.2929 18.436 46.0627 17.6781 45.6012 17.0584C45.1528 16.4258 44.527 15.9315 43.7226 15.5757C42.9185 15.2065 41.9893 14.9758 40.9347 14.8836L39.8275 14.7848C39.1684 14.7319 38.6939 14.5541 38.4039 14.2508C38.1138 13.9477 37.9688 13.5917 37.9688 13.1832C37.9688 12.8667 38.0482 12.5768 38.2059 12.3132C38.3643 12.0363 38.6015 11.8189 38.9179 11.6606C39.2475 11.5025 39.6495 11.4234 40.1241 11.4234C40.6248 11.4234 41.0402 11.5156 41.3697 11.7002C41.4422 11.7393 41.5111 11.781 41.5758 11.8252L41.5915 11.8362C41.6157 11.8529 41.6395 11.8703 41.6627 11.8878C41.8629 12.0408 42.0223 12.2221 42.1408 12.4318C42.312 12.7218 42.3982 13.0447 42.3982 13.4007H45.5613C45.5613 12.4515 45.3438 11.6277 44.9091 10.9291C44.4741 10.2173 43.848 9.67028 43.0308 9.28789C42.2264 8.89244 41.2577 8.69472 40.1241 8.69472C39.043 8.69472 38.1073 8.87938 37.3163 9.24841C36.5256 9.60437 35.906 10.1184 35.4579 10.7906C35.0226 11.4629 34.805 12.2605 34.805 13.1832C34.805 14.4617 35.2339 15.4899 36.0905 16.2677C36.9472 17.0454 38.0942 17.4935 39.531 17.6122L40.6185 17.711C41.5014 17.7901 42.1408 17.9681 42.5364 18.2448C42.9315 18.5084 43.1295 18.8709 43.1295 19.3323C43.1295 19.5444 43.0948 19.7432 43.0253 19.929C42.9737 20.0669 42.9031 20.1975 42.8133 20.321C42.602 20.5979 42.2924 20.8151 41.8838 20.9735C41.4752 21.1316 40.9677 21.2106 40.3612 21.2106C39.689 21.2106 39.142 21.1185 38.7203 20.934C38.2984 20.7361 37.9822 20.479 37.7709 20.1629C37.5733 19.8464 37.4747 19.5038 37.4747 19.1346H34.3308C34.3308 20.0705 34.5614 20.901 35.0226 21.6261C35.484 22.3377 36.163 22.9047 37.0596 23.3263Z" fill="white"/>
<path d="M79.8828 23.3263C80.7789 23.7349 81.8796 23.9394 83.1844 23.9394C84.4104 23.9394 85.4647 23.7483 86.3482 23.3659C87.2313 22.9837 87.91 22.4497 88.3845 21.7645C88.8725 21.0656 89.1161 20.255 89.1161 19.3323C89.1161 18.436 88.8859 17.6781 88.4244 17.0584C87.9759 16.4258 87.3502 15.9315 86.5458 15.5757C85.7417 15.2065 84.8125 14.9758 83.7579 14.8836L82.6507 14.7848C81.9916 14.7319 81.5171 14.5541 81.227 14.2508C80.937 13.9477 80.792 13.5917 80.792 13.1832C80.792 12.8667 80.8714 12.5768 81.0291 12.3132C81.1875 12.0363 81.4246 11.8189 81.7411 11.6606C82.0707 11.5025 82.4727 11.4234 82.9473 11.4234C83.4479 11.4234 83.8634 11.5156 84.1929 11.7002C84.2654 11.7393 84.3343 11.781 84.399 11.8252L84.4147 11.8362C84.4388 11.8529 84.4627 11.8703 84.4859 11.8878C84.6861 12.0408 84.8455 12.2221 84.964 12.4318C85.1352 12.7218 85.2214 13.0447 85.2214 13.4007H88.3845C88.3845 12.4515 88.167 11.6277 87.7323 10.9291C87.2973 10.2173 86.6712 9.67028 85.854 9.28789C85.0496 8.89244 84.0809 8.69472 82.9473 8.69472C81.8662 8.69472 80.9305 8.87938 80.1395 9.24841C79.3488 9.60437 78.7292 10.1184 78.2811 10.7906C77.8457 11.4629 77.6282 12.2605 77.6282 13.1832C77.6282 14.4617 78.057 15.4899 78.9137 16.2677C79.7704 17.0454 80.9174 17.4935 82.3541 17.6122L83.4417 17.711C84.3245 17.7901 84.964 17.9681 85.3595 18.2448C85.7547 18.5084 85.9526 18.8709 85.9526 19.3323C85.9526 19.5444 85.918 19.7432 85.8485 19.929C85.7969 20.0669 85.7263 20.1975 85.6365 20.321C85.4252 20.5979 85.1156 20.8151 84.707 20.9735C84.2984 21.1316 83.7909 21.2106 83.1844 21.2106C82.5122 21.2106 81.9652 21.1185 81.5435 20.934C81.1216 20.7361 80.8054 20.479 80.5941 20.1629C80.3965 19.8464 80.2979 19.5038 80.2979 19.1346H77.154C77.154 20.0705 77.3846 20.901 77.8457 21.6261C78.3072 22.3377 78.9862 22.9047 79.8828 23.3263Z" fill="white"/>
<path d="M58.2947 23.7019C57.2006 23.7019 56.3175 23.5703 55.6453 23.3064C54.9728 23.0298 54.4787 22.5752 54.1622 21.9425C53.8591 21.2965 53.7076 20.4264 53.7076 19.3323V15.0417H52.0664V12.7284H53.7076V9.80209H56.6535V12.7284H59.8173V15.0417H56.6535V19.4511C56.6535 19.9651 56.7855 20.3605 57.049 20.6371C57.3257 20.901 57.7147 21.0326 58.2157 21.0326H59.8173V23.7019H58.2947Z" fill="white"/>
<path d="M107.551 23.7019C106.457 23.7019 105.573 23.5703 104.901 23.3064C104.229 23.0298 103.735 22.5752 103.418 21.9425C103.115 21.2965 102.964 20.4264 102.964 19.3323V15.0417H101.322V12.7284H102.964V9.80209H105.91V12.7284H109.073V15.0417H105.91V19.4511C105.91 19.9651 106.042 20.3605 106.305 20.6371C106.582 20.901 106.971 21.0326 107.472 21.0326H109.073V23.7019H107.551Z" fill="white"/>
<path fill-rule="evenodd" clip-rule="evenodd" d="M63.6261 23.4649C64.3378 23.7814 65.1553 23.9394 66.0779 23.9394C66.9872 23.9394 67.7916 23.7814 68.4902 23.4649C69.1888 23.1484 69.7689 22.7068 70.23 22.1402C70.6915 21.5732 71.0015 20.9275 71.1592 20.2025H68.2528C68.1212 20.532 67.8707 20.8086 67.5016 21.0327C67.1325 21.2571 66.6577 21.3691 66.0779 21.3691C65.7187 21.3691 65.3976 21.3266 65.1148 21.2414C64.8996 21.1767 64.7065 21.0876 64.5357 20.9736C64.1402 20.71 63.8502 20.3406 63.6657 19.8663C63.6144 19.7312 63.5706 19.5898 63.5337 19.4425C63.4962 19.2934 63.4658 19.1381 63.4429 18.9766H71.3571V17.9088C71.3571 16.9202 71.1461 16.0107 70.7245 15.1803C70.3025 14.3365 69.6895 13.6577 68.8857 13.1436C68.0947 12.6164 67.1191 12.3527 65.9591 12.3527C65.0759 12.3527 64.2849 12.511 63.5863 12.8273C62.9014 13.1304 62.3279 13.5456 61.8664 14.0729C61.4052 14.6001 61.0492 15.2 60.7984 15.8723C60.5613 16.5312 60.4427 17.2233 60.4427 17.9483V18.3437C60.4427 19.0425 60.5613 19.7278 60.7984 20.4001C61.0492 21.0591 61.4052 21.6588 61.8664 22.1993C62.341 22.7268 62.9272 23.1484 63.6261 23.4649ZM63.4975 17.0214C63.5063 16.9796 63.5154 16.9383 63.5255 16.8977C63.553 16.7859 63.5847 16.6788 63.6206 16.5765C63.6408 16.5182 63.6624 16.4613 63.6856 16.4061C63.8832 15.9183 64.1732 15.5493 64.5553 15.2989C64.6984 15.2053 64.8532 15.1292 65.0194 15.0706C65.299 14.9724 65.6125 14.9232 65.9591 14.9232C66.4999 14.9232 66.9477 15.0485 67.3037 15.2989C67.6727 15.5361 67.9497 15.8854 68.1342 16.3467C68.1492 16.384 68.1633 16.4219 68.177 16.4602C68.1989 16.5214 68.2191 16.5841 68.2381 16.6484C68.2658 16.7441 68.2903 16.8431 68.3119 16.9455C68.3276 17.0209 68.341 17.0981 68.353 17.1773H63.4671C63.4762 17.1244 63.4864 17.0725 63.4975 17.0214Z" fill="white"/>
<path fill-rule="evenodd" clip-rule="evenodd" d="M93.0747 23.4649C93.7864 23.7814 94.6039 23.9394 95.5265 23.9394C96.4358 23.9394 97.2402 23.7814 97.9388 23.4649C98.6374 23.1484 99.2175 22.7068 99.6786 22.1402C100.14 21.5732 100.45 20.9275 100.608 20.2025H97.7014C97.5698 20.532 97.3193 20.8086 96.9502 21.0327C96.5811 21.2571 96.1063 21.3691 95.5265 21.3691C95.1673 21.3691 94.8462 21.3266 94.5634 21.2414C94.3482 21.1767 94.1551 21.0876 93.9843 20.9736C93.5888 20.71 93.2988 20.3406 93.1143 19.8663C93.063 19.7312 93.0192 19.5898 92.9823 19.4425C92.9448 19.2934 92.9144 19.1381 92.8915 18.9766H100.806V17.9088C100.806 16.9202 100.595 16.0107 100.173 15.1803C99.7511 14.3365 99.1381 13.6577 98.3343 13.1436C97.5433 12.6164 96.5678 12.3527 95.4077 12.3527C94.5245 12.3527 93.7335 12.511 93.0349 12.8273C92.35 13.1304 91.7765 13.5456 91.315 14.0729C90.8539 14.6001 90.4979 15.2 90.247 15.8723C90.0099 16.5312 89.8914 17.2233 89.8914 17.9483V18.3437C89.8914 19.0425 90.0099 19.7278 90.247 20.4001C90.4979 21.0591 90.8539 21.6588 91.315 22.1993C91.7896 22.7268 92.3758 23.1484 93.0747 23.4649ZM92.9461 17.0214C92.9549 16.9796 92.964 16.9383 92.9742 16.8977C93.0016 16.7859 93.0333 16.6788 93.0692 16.5765C93.0894 16.5182 93.111 16.4613 93.1342 16.4061C93.3318 15.9183 93.6218 15.5493 94.0039 15.2989C94.147 15.2053 94.3018 15.1292 94.468 15.0706C94.7476 14.9724 95.0611 14.9232 95.4077 14.9232C95.9485 14.9232 96.3963 15.0485 96.7523 15.2989C97.1213 15.5361 97.3983 15.8854 97.5828 16.3467C97.5979 16.384 97.6119 16.4219 97.6256 16.4602C97.6475 16.5214 97.6677 16.5841 97.6867 16.6484C97.7145 16.7441 97.7389 16.8431 97.7605 16.9455C97.7762 17.0209 97.7896 17.0981 97.8017 17.1773H92.9157C92.9248 17.1244 92.935 17.0725 92.9461 17.0214Z" fill="white"/>
</svg>
